<?xml version="1.0" encoding="utf-8"?>
<!-- Generator: Adobe Illustrator 25.2.0, SVG Export Plug-In . SVG Version: 6.00 Build 0)  -->
<svg version="1.1" id="Layer_1" xmlns="http://www.w3.org/2000/svg" xmlns:xlink="http://www.w3.org/1999/xlink" x="0px" y="0px"
	 viewBox="0 0 650.9 369.5" style="enable-background:new 0 0 650.9 369.5;" xml:space="preserve">
<style type="text/css">
	.st0{clip-path:url(#SVGID_2_);}
	.st1{fill:none;}
	.st2{opacity:0.3;}
	.st3{fill:#17151E;}
	.st4{fill:#261C30;}
	.st5{fill:#74648F;}
	.st6{fill:#382853;}
	.st7{fill:#42325D;}
	.st8{fill:#2E1E49;}
	.st9{fill:#E8414D;}
	.st10{fill:#564671;}
	.st11{fill:none;stroke:#8B7BA6;stroke-width:1.1811;}
	.st12{fill:#0E0A1E;}
	.st13{fill:#4C3C67;}
	.st14{fill:#1F1236;}
	.st15{fill:#291C40;}
	.st16{fill:#B65C40;}
	.st17{fill:#CA7054;}
	.st18{fill:#523A54;}
	.st19{fill:#FFB78F;}
	.st20{fill:#1F1A2E;}
	.st21{fill:#2A243E;}
	.st22{fill:#0A0716;}
	.st23{fill:#684A6A;}
	.st24{fill:#2A2439;}
	.st25{fill-rule:evenodd;clip-rule:evenodd;fill:#2A2439;}
	.st26{fill:none;stroke:#DF9165;stroke-width:0.4668;stroke-linecap:round;}
	.st27{fill:none;stroke:#1F1A2E;stroke-width:0.5412;}
	.st28{fill:#948175;}
	.st29{fill:#B59E8E;}
	.st30{fill:none;stroke:#DF9165;stroke-width:0.433;stroke-linecap:round;}
	.st31{fill:#3C2A3E;}
	.st32{fill:none;stroke:#523A54;stroke-width:0.431;}
	.st33{fill:#865749;}
	.st34{fill:#F0EEF5;}
	.st35{fill:url(#SVGID_3_);}
	.st36{fill:none;stroke:#0E0A1E;stroke-width:0.5142;}
	.st37{fill:none;stroke:#542517;stroke-width:0.5388;stroke-linecap:round;}
	.st38{fill-rule:evenodd;clip-rule:evenodd;fill:#2D130B;}
	.st39{fill:#1B1025;}
	.st40{fill-rule:evenodd;clip-rule:evenodd;fill:#523A54;}
	.st41{fill:#814937;}
	.st42{fill:#F89977;}
	.st43{fill:none;stroke:#E06032;stroke-width:0.6014;stroke-linecap:round;}
	.st44{fill:none;stroke:#E48563;stroke-width:0.6014;stroke-linecap:round;}
	.st45{fill-rule:evenodd;clip-rule:evenodd;fill:#814937;}
	.st46{fill:#FACBBA;}
	.st47{fill:#D2D0D7;}
	.st48{fill:#FFFFFF;}
	.st49{fill:#8B7BA6;}
	.st50{fill:none;stroke:#E06032;stroke-width:0.5505;stroke-linecap:round;}
	.st51{fill-rule:evenodd;clip-rule:evenodd;fill:#684A6A;}
	.st52{fill:none;stroke:#814937;stroke-width:0.6014;stroke-linecap:round;}
	.st53{fill:none;stroke:#1F1A2E;stroke-width:0.5412;stroke-linecap:round;stroke-linejoin:round;}
	.st54{fill:#D42D39;}
	.st55{fill:#E5AE58;}
	.st56{fill:#B37C26;}
	.st57{fill:#664E68;}
	.st58{fill:#705872;}
	.st59{fill:#846C86;}
	.st60{fill:#F24B57;}
	.st61{fill:#FF5F6B;}
	.st62{fill:#33264A;}
	.st63{fill:#473A5E;}
	.st64{fill:none;stroke:#33264A;stroke-width:0.5;}
</style>
<g>
	<defs>
		<rect id="SVGID_1_" x="-730" y="-163" width="1440" height="661"/>
	</defs>
	<clipPath id="SVGID_2_">
		<use xlink:href="#SVGID_1_"  style="overflow:visible;"/>
	</clipPath>
	<g class="st0">
		<rect x="-730" y="-176" class="st1" width="1440" height="688"/>
		<g class="st2">
			<path class="st3" d="M338.7,348.8c0-0.8,0.6-1.4,1.4-1.4H433c0.8,0,1.4,0.6,1.4,1.4c0,0.8-0.6,1.4-1.4,1.4h-92.9
				C339.3,350.2,338.7,349.6,338.7,348.8z"/>
		</g>
		<path class="st4" d="M539.6,347.2c10.3-30.7,15.8-127.1,13.9-181.5h5.4v51c4.6-11.9,11-39.1,12.5-51h3
			c-2.7,26.6-10.6,50.9-13.6,66.7c-2.4,12.7-2.9,84.5-1.9,114.8H539.6z"/>
		<g class="st2">
			<path class="st3" d="M561,230.8c1-4.7,2.3-10.2,3.8-16.2c3.5-14,7.7-30.9,9.5-48.9h-3c-1.5,11.9-7.9,39.2-12.5,51v-51h-5.4
				c0.6,17.6,0.5,39.7-0.4,62.4C555.6,229.3,558.2,230.2,561,230.8z"/>
		</g>
		<path class="st5" d="M507.7,141.4c4.3,22.9,18.8,31.4,25.5,32.8c3.7,23.1,31.2,37.9,58,23.2c6.4-3.5,13.3-13.2,15.8-17.8
			c9.7,0.1,31.4-4.3,40.6-22.6c9.2-18.3-2.8-34.3-9.9-40.1c7.4-38.1-18.1-46.2-28.9-52.5c-1.5-6.7-11.6-46.5-43.1-42.2
			c-25.2,3.5-26.9,26.8-24.6,38c-18,7.2-14.3,28.1-10.1,37.6C517.6,97.7,502.3,112.8,507.7,141.4z"/>
		<g class="st2">
			<path class="st3" d="M632.5,172.7c-17.2,2.1-35.9-4.4-44-20.6c-6.9,6.6-27.9,26.3-56.2,4.7c-2.5,2.8-6.9,6.4-12.8,9.1
				c5,5.2,10.3,7.6,13.7,8.3c3.7,23.1,31.2,37.9,58,23.2c6.4-3.5,13.3-13.2,15.8-17.8C612.8,179.7,623.2,178.1,632.5,172.7z"/>
		</g>
		<path class="st6" d="M230.8,346.3H0c15.1-13.8,25.2-26,47.7-19.7c21.5-30.8,55.9-14.4,79.1,5.1c1.7-3.1,8.7-9.9,22.9-12.3
			c14.2-2.4,30.2,7.2,36.4,12.3c1.9-3.8,8.5-10.9,19.5-8.3C216.5,325.9,227,340.3,230.8,346.3z"/>
		<path class="st5" d="M63.6,287.7H109v58.6H75.9L63.6,287.7z"/>
		<path class="st6" d="M65.8,298.1l-0.8-3.8h44v3.8H65.8z"/>
		<path class="st6" d="M67.6,306.6l-0.8-3.8H109v3.8H67.6z"/>
		<g class="st2">
			<path class="st3" d="M91.7,287.7c-0.9,4-2.6,7.9-4.9,10.9c-4.7,6.1-11.8,7.1-15.6,7.1c-0.9,0-2.2,0.5-3.5,1.2l-4-19.2H91.7z"/>
		</g>
		<path class="st6" d="M57,214c1.4-3.3,6.6-6.1,11.8-9c9.9-5.4,23.4,5.2,22.7,15.6c-0.5,6.6-7.6,19.8-16.1,24.6
			c-8.5,4.7-25.5,8-29.3,0c-3.8-8-2.4-13.7,3.8-18.4C56.1,222.1,55.6,217.3,57,214z"/>
		<path class="st7" d="M44.3,287.3c1.9-2.4,0.5-14.6,5.2-19.4c7.2-7.2,36.3-15.4,41.6-1.4c2.8,7.6,0.5,17.5-4.3,23.6
			c-4.7,6.1-11.8,7.1-15.6,7.1c-3.8,0-12.3,7.6-15.6,9.5c-3.3,1.9-14.2,2.4-16.5-4.7C36.7,294.8,42.4,289.6,44.3,287.3z"/>
		<path class="st5" d="M70.7,225.4c2.3-4.9,9.4-5.5,12.8-5.2c2.2,0,7.7,1,11.8,5.2c5.2,5.2,10.4,22.7,4.3,34
			c-6.1,11.3-20.8,25-28.8,26c-8,0.9-7.6-5.2-7.6-11.3s-5.7-10.9-5.7-16.5c0-5.7,6.6-14.6,9.9-18C70.7,236.2,67.9,231.5,70.7,225.4z
			"/>
		<path class="st5" d="M623.7,346.6H392.9c15.1-14.1,25.2-26.5,47.7-20.1c21.5-31.4,55.9-14.7,79.1,5.2c1.7-3.2,8.7-10.1,22.9-12.5
			c14.2-2.5,30.2,7.3,36.4,12.5c1.9-3.9,8.5-11.1,19.5-8.5C609.4,325.8,619.8,340.5,623.7,346.6z"/>
		<rect x="97.6" y="41.1" class="st8" width="451.2" height="4.7"/>
		<rect x="97.6" y="45.8" class="st6" width="451.2" height="23.6"/>
		<path class="st7" d="M86,17.4h474.8L549,41.1H97.8L86,17.4z"/>
		<path class="st9" d="M97.6,60h451.2l18.9,37.8h-489L97.6,60z"/>
		<path class="st9" d="M78.7,116.7h489V97.8h-489V116.7z"/>
		<g class="st2">
			<path class="st3" d="M97.6,135.6h451.2v-18.9H97.6V135.6z"/>
		</g>
		<rect x="97.6" y="116.7" class="st6" width="451.2" height="230.3"/>
		<rect x="97.6" y="293.8" class="st10" width="237.4" height="53.2"/>
		<path class="st11" d="M109.4,305.7h220.9v29.5H109.4V305.7z"/>
		<rect x="434.2" y="293.8" class="st10" width="114.6" height="53.2"/>
		<path class="st11" d="M446,305.7H537v29.5H446V305.7z"/>
		<path class="st12" d="M335,126.1h99.2V347H335V126.1z"/>
		<path class="st7" d="M335,323.4h99.2V347H335V323.4z"/>
		<path class="st13" d="M335,323.4h99.2v2.4H335V323.4z"/>
		<path class="st6" d="M335,299.7h99.2v23.6H335V299.7z"/>
		<g class="st2">
			<path class="st3" d="M361.3,299.7h14.2V347h-25.6L361.3,299.7z"/>
		</g>
		<rect x="107" y="126.1" class="st12" width="218.5" height="158.3"/>
		<path class="st14" d="M253.2,260.8h-2.7V284h2.7V260.8z"/>
		<path class="st14" d="M229,260.8h-2.7V284h2.7V260.8z"/>
		<rect x="226.3" y="260.8" class="st14" width="26.8" height="9.8"/>
		<path class="st14" d="M315.8,260.8h-2.7V284h2.7V260.8z"/>
		<path class="st14" d="M291.6,260.8h-2.7V284h2.7V260.8z"/>
		<rect x="288.9" y="260.8" class="st14" width="26.8" height="9.8"/>
		<path class="st14" d="M143.3,260.8h-2.7V284h2.7V260.8z"/>
		<path class="st14" d="M119.2,260.8h-2.7V284h2.7V260.8z"/>
		<rect x="116.5" y="260.8" class="st14" width="26.8" height="9.8"/>
		<path class="st14" d="M205.9,260.8h-2.7V284h2.7V260.8z"/>
		<path class="st14" d="M181.8,260.8h-2.7V284h2.7V260.8z"/>
		<rect x="179.1" y="260.8" class="st14" width="26.8" height="9.8"/>
		<rect x="130.6" y="274.9" class="st15" width="61.4" height="9.4"/>
		<rect x="240.5" y="274.9" class="st15" width="62.6" height="9.4"/>
		<path class="st14" d="M142.5,176.9c0-7.8,6.3-14.2,14.2-14.2h2.4c7.8,0,14.2,6.3,14.2,14.2H142.5z"/>
		<path class="st14" d="M259.4,176.9c0-7.8,6.3-14.2,14.2-14.2h2.4c7.8,0,14.2,6.3,14.2,14.2H259.4z"/>
		<path class="st14" d="M156.6,126.1h2.4v36.6h-2.4V126.1z"/>
		<path class="st14" d="M273.6,126.1h2.4v36.6h-2.4V126.1z"/>
		<path class="st14" d="M376.3,176.9c0-7.8,6.4-14.2,14.2-14.2h2.4c7.8,0,14.2,6.3,14.2,14.2H376.3z"/>
		<path class="st14" d="M390.5,126.1h2.4v36.6h-2.4V126.1z"/>
		<rect x="443.7" y="126.1" class="st12" width="94.5" height="158.3"/>
		<path class="st14" d="M494.4,176.9c0-7.8,6.3-14.2,14.2-14.2h2.4c7.8,0,14.2,6.3,14.2,14.2H494.4z"/>
		<path class="st14" d="M508.6,126.1h2.4v36.6h-2.4V126.1z"/>
		<rect x="107" y="149.7" class="st8" width="218.5" height="5.9"/>
		<rect x="440.1" y="149.7" class="st8" width="102.8" height="5.9"/>
		<rect x="335" y="126.1" class="st16" width="22.4" height="173.6"/>
		<rect x="335" y="126.1" class="st17" width="3.5" height="173.6"/>
		<path class="st17" d="M352.7,155.6h2.4v83.9h-2.4V155.6z"/>
		<path class="st12" d="M340.9,155.6h13v83.9h-13V155.6z"/>
		<path class="st12" d="M340.9,126.1h13v23.6h-13V126.1z"/>
		<path class="st17" d="M355.1,126.1h-1.2v23.6h1.2V126.1z"/>
		<path class="st17" d="M340.9,295h13v-50.8h-13V295z"/>
		<rect x="85.8" y="8" class="st5" width="474.8" height="9.4"/>
		<path class="st13" d="M335,299.7h99.2v2.4H335V299.7z"/>
		<rect x="343.2" y="176.9" class="st10" width="8.3" height="9.4"/>
		<g class="st2">
			<path class="st3" d="M357.4,126.1H335l22.4,173.6V126.1z"/>
		</g>
		<path class="st14" d="M457.8,236h65v48.4h-65V236z"/>
		<path class="st18" d="M453.3,243.3H528v23.6h-74.7V243.3z"/>
		<g class="st2">
			<path class="st3" d="M97.6,135.6h451.2v-18.9H97.6V135.6z"/>
		</g>
		<path class="st18" d="M140.2,188.5h76.1h76.1V231h-76.1h-76.1V188.5z"/>
		<g class="st2">
			<path class="st3" d="M78.7,116.7h489V97.8h-489V116.7z"/>
		</g>
		<path class="st19" d="M325.9,203.4c0.2,1,0.5,2,0.8,2.9l23.5,8.9l14.3-6.3l6.1,11.4c-4.9,2.3-16.2,8.5-24.2,6.1
			c-6.8-2-15.7-9.5-20.4-13.5c-0.8-0.7-1.6-1.3-2.1-1.7l0-0.1c-1.5-1.4-2.3-2.6-2.7-3.3c-0.5-0.8-1.1-1.5-1.8-2.3
			c-0.5-0.6-1.1-1.3-1.7-2.1c-0.4-0.8,0.3-1,0.7-0.7c0.2,0.1,1.1,1,2,1.9c-0.4-1.2-1-2.2-1.7-3.3c-0.8-1.2-1.6-2.3-1.6-2.5
			c0-0.3,0.3-0.5,0.6-0.3c0.3,0.1,2.5,2.8,3.6,4.1c-0.7-1.7-2.1-5.3-2.1-5.5c0.1-0.3,0.5-0.4,0.7-0.2c0.2,0.2,1.6,2.9,2.3,4.3
			c-0.5-1.2-1.6-3.6-1.5-3.8c0.1-0.3,0.3-0.4,0.7-0.2c0.3,0.2,2.2,3.8,3.1,5.6c-0.1-0.5-0.9-4.4,0-4
			C324.8,198.9,325.3,201,325.9,203.4z"/>
		<path class="st19" d="M423.4,233.9c-1.9-6.4-3.9-10.6-9.1-17.9l-9.4,5.3l10.7,16.1L405,255.6l7.5,3.6
			C422,245.6,425.8,241.8,423.4,233.9z"/>
		<path class="st20" d="M358.9,339.7c-1.9-7-7.7-9.4-10.4-9.7c0,1.4,0.7,4.7,3.7,6.9C355,339.1,357.8,339.7,358.9,339.7z"/>
		<path class="st21" d="M349.8,347.8c1.4-0.9,5.3-10,6.5-12.8c-1.6-4.2-2.5-5.2-8.3-5.6l-1.6,3.8c-0.8,1.2-12.1-7.5-12.8-4.4
			C332.9,331.4,346.9,349.6,349.8,347.8z"/>
		<g class="st2">
			<path class="st3" d="M350.5,346.8c-0.3,0.4-0.7,0.8-1,1c-2.8,1.8-15.6-15.1-16-18.6C335.2,327,348.4,342.1,350.5,346.8z"/>
		</g>
		<path class="st7" d="M347.6,330.5l26.6-79.1l22.9,4.4l-38.1,84C355.4,332.8,350.8,330.9,347.6,330.5z"/>
		<g class="st2">
			<path class="st3" d="M388.6,274.3l-29.7,65.5c0-0.1-0.1-0.1-0.1-0.2l26.5-69.9L388.6,274.3z"/>
		</g>
		<path class="st20" d="M390.5,270.2l-5.7,12.6l1.1-22.4L390.5,270.2z"/>
		<path class="st21" d="M423.4,336.8c-0.7-2.2-2.4-4-3.2-4.6l5.6-8c0.6,0.6,2.1,2.1,3.1,3.4c1.2,1.7,3.1,20.7-0.5,21.5
			C425.8,349.6,424.3,339.5,423.4,336.8z"/>
		<g class="st2">
			<path class="st3" d="M423.4,336.8c-0.7-2.2-2.4-4-3.2-4.6l5.6-8c0.6,0.6,2.1,2.1,3.1,3.4c1.2,1.7,3.1,20.7-0.5,21.5
				C425.8,349.6,424.3,339.5,423.4,336.8z"/>
		</g>
		<path class="st7" d="M397,307c-7.7-12.8-11.9-45.7-12.2-54.9l21.8,0.9l4.6,45.9l17.8,28.4c-0.7,6.3-4.3,8.2-5.9,9.1l0,0
			C409.4,324.7,400.9,314.7,397,307z"/>
		<g class="st2">
			<path class="st3" d="M427.4,324.7l1.6,2.6c-0.7,6.3-4.3,8.2-5.9,9.1l0,0c-6.9-5.9-12.5-11.3-16.8-16.3
				C412.2,323.5,420,326.3,427.4,324.7z"/>
		</g>
		<g class="st2">
			<path class="st3" d="M408.5,271.8l-36.6-13.7l2.3-6.7l10.7,2c0-0.5,0-0.9,0-1.3l21.8,0.9L408.5,271.8z"/>
		</g>
		<path class="st22" d="M373.1,254.6l6.4-2.2l5.4,1c0-0.5-0.1-0.9-0.1-1.3l21.8,0.9l0.7,6.9c-16.6,0.8-29.3-2.6-34.4-4.7
			L373.1,254.6z"/>
		<path class="st23" d="M376.4,240.4c-0.3,5.1-1.6,7.7-5,14.7c11.7,5,26.2,3.5,38.4-1.2c0-0.4,0-1.2,0-2.2c0-5.4,0.1-17.9-0.3-27.7
			l7.8-3.8c-11.3-17.3-13.9-19-29.7-19c-6.7,0-13.2,3-22.8,7.5c-1.9,0.9-3.9,1.8-6,2.8c1.1,6.6,2.3,9.8,5.3,14.6
			c2.5-1,7.1-2.8,10.5-4.3C375.7,229.6,376.6,237.6,376.4,240.4z"/>
		<path class="st22" d="M402.8,219.2l4,6.9l-1.2,1.8L402.8,219.2z"/>
		<path class="st22" d="M395.7,201.5c-6,3.1-11,3-13.1,2.5l1.5-2.5c1.2-0.2,2.4-0.3,3.6-0.3C390.8,201.2,393.4,201.2,395.7,201.5z"
			/>
		<path class="st19" d="M382.6,204l2.9-11.5l7.1,3.2l0.2,7C390,204.2,385.5,204.6,382.6,204z"/>
		<path class="st19" d="M385.7,193.9c3.7,4.5,10.6,4.5,11.3,4.2c0.9-0.4,1.3-3.6,2-7.7c0.7-1.1,2.2-1.8,0.4-2.6
			c-2.7-1.1-0.7-10.1-8.3-10.1C382,177.7,381,188.1,385.7,193.9z"/>
		<path class="st24" d="M390,188c1.2-0.1,2,0.6,2.3,1l0.6-5.2c1.5-1.1,2.2-1.6,3.6-2.8c1.1-1.8,1.6-5.3-3-6.2
			c-4.5-0.9-12.7,1.8-14.3,6c-1.4,3.8,1.5,10.3,5.7,14.3l6.6-2.3C387.6,190.5,388.5,188.2,390,188z"/>
		<ellipse class="st12" cx="396.6" cy="186.5" rx="0.3" ry="0.6"/>
		<path class="st25" d="M395.5,184.9c-0.1-0.1-0.1-0.2,0-0.2c0.2-0.3,1-0.9,1.9-0.5c0.1,0,0.1,0.1,0.1,0.2
			C397.4,184.4,395.6,184.9,395.5,184.9z"/>
		<path class="st26" d="M395.2,191.4c0.2,0.4,0.9,1.2,2.3,0.9"/>
		<path class="st22" d="M374.3,214.9l-0.4,7.2c0.3-0.1,0.6-0.3,0.9-0.4C375.1,224.1,374.4,216.1,374.3,214.9z"/>
		<path class="st27" d="M377.7,242.4c2,1.8,6.8,5.7,10.1,7"/>
		<path class="st28" d="M420.9,258.3l0.2-35.1l-9.6,35.7L420.9,258.3z"/>
		<path class="st29" d="M411.5,258.9l9.6-35.7l-20.9-0.8l-7.3,32.8L411.5,258.9z"/>
		<path class="st19" d="M406.6,252.8c0.2,0.2,2.9,4,4.5,6l2.3,0c-1.2,0.8-2.6,1.7-3.6,1.8c-1.3,0.1-5.5-0.1-6.5-1
			c-0.8-0.7-2.7-3.2-3.8-4.8c-0.3-0.6,0.1-1.2,0.6-0.8c0.4,0.5,0.7,0.7,1.8,1.8c0-2.4-0.1-3.7,0.2-3.9c0.3-0.3,0.6-0.3,0.8,0
			c0.2-0.1,0.6-0.1,0.9,0.1s1.5,3.4,3.5,5.3c-0.4-1.4-1.8-4.1-1.8-4.3C405.4,252.5,406.1,252.3,406.6,252.8z"/>
		<path class="st30" d="M404.2,258.3l-1.6-6.5"/>
		<g class="st2">
			<path class="st3" d="M456.8,364.4c0-0.9,0.7-1.6,1.6-1.6h129.9c0.9,0,1.6,0.7,1.6,1.6s-0.7,1.6-1.6,1.6H458.5
				C457.6,366.1,456.8,365.3,456.8,364.4z"/>
		</g>
		<path class="st7" d="M491.5,366.1v-43.5h4.1v43.5H491.5z"/>
		<path class="st7" d="M530.9,366.1v-43.5h4.1v43.5H530.9z"/>
		<path class="st7" d="M457.5,318.5h111.4v4.1H457.5V318.5z"/>
		<path class="st7" d="M568.9,272.3v46.2h-4.1v-46.2H568.9z"/>
		<path class="st7" d="M482,272.3v46.2h-4.1v-46.2H482z"/>
		<path class="st7" d="M477.9,272.3h86.9v16.3h-86.9V272.3z"/>
		<path class="st7" d="M477.9,294.1h86.9v16.3h-86.9V294.1z"/>
		<path class="st12" d="M524.2,360.6c3.4-0.8,1.6-3.6,1.8-4.9l8.5,0.5l1.9,10.4l-3.4,0.3c-0.2-0.4-0.7-1.3-1.2-1.3
			c-0.6,0-1.4,1.1-1.9,1.4c-0.5,0.3-13.8,0.3-14.4,0.2c-0.6,0-3.6-0.9-1.3-3.3C516.5,361.4,519.9,361.7,524.2,360.6z"/>
		<path class="st12" d="M523,356.5c-0.4-1.2-3.1-2.6-4.4-3.1l3.6-8l10.8,8l-8.7,13.4h-9c0.5-2.1,3.1-1.8,4.1-2.6
			S523.5,358,523,356.5z"/>
		<path class="st31" d="M493.1,311.8c7.2-5.3,16.4-8.9,20-10l12.6-4.4c3.2,4.6,9.4,14,8.7,14.4c-0.6,0.4-18.4,9.4-27.2,13.9
			l20.4,22.1l-9.1,9c-9.2-7.5-23.5-19.2-26.9-24.2C486.8,325.6,484.1,318.4,493.1,311.8z"/>
		<path class="st12" d="M519.3,319.5c-2.7,1.4-5.4,2.7-7.8,4l3.2-13.5L519.3,319.5z"/>
		<path class="st18" d="M531.9,319.2h10.8c2.2-0.3,6.7-2,6.9-6.7c0.3-5.9-8.7-13.1-13.9-13.1s-18.5,5.9-21.3,10.8
			c-2.3,3.9,5.4,33.2,10.3,46.5h13.1L531.9,319.2z"/>
		<path class="st12" d="M548.4,316l-6.9-12l-29.3-2c0,0,0,0-0.1,0c0,0,0,0,0,0l0.1,0c9.7,1,15.6,9.2,19.7,17.2h10.8
			C544.2,319,546.9,318.2,548.4,316z"/>
		<path class="st23" d="M516.4,288.4c0.3,5.1,3.1,8.7,7.5,8.5c7.9-0.5,12.4-28,14.4-33.9c-1.9-0.1-6.3,0.2-9,1.8
			C525.9,266.8,516.2,283.2,516.4,288.4z"/>
		<path class="st12" d="M533.7,280.5l-15.4,13.8c1.3,1.8,3.2,2.7,5.6,2.6C528.1,296.6,531.3,288.7,533.7,280.5z"/>
		<path class="st23" d="M564.2,270.4c-0.2-4.9-5.7-7.5-8.5-8.2c-6.9-0.1-21.2,0.2-22.6,1.8c-1.8,2.1-6.7,30.1-7.2,30.6
			c-0.4,0.4-11,5.8-16.6,8.5c3.8-0.1,11.3,0.3,14.6,2.3c3.3,2.1,10.3,10.1,13.4,13.9h12.4C555.9,313.6,564.5,276.5,564.2,270.4z"/>
		<path class="st32" d="M517.6,303.8l13.9-8.2l8.7-26.5"/>
		<path class="st32" d="M529.9,294.3l21.1,7.2"/>
		<path class="st33" d="M527.3,283.7c-1.5,0.8-5.6-1.5-5.9-3.3c-0.6-4.2,3.6-8.6,5.7-11.8c1,1.8,3.1,5.7,3.1,6.7
			C530.2,276.5,528.9,283,527.3,283.7z"/>
		<path class="st34" d="M536.3,290.9c0.8-1.2,3.9-13.5,6.7-22.1l11.8-5.9c-2.8,9.9-6.2,25.3-7.5,28H536.3z"/>
		<path class="st12" d="M552.8,270.5c-3.1,1-7.2,1.6-10.1,1.9l6.2-6.6l5.9-2.9C554.3,264.6,553.3,268.6,552.8,270.5z"/>
		<path class="st12" d="M518.3,263.9h9.8l5.2,17h-9.8L518.3,263.9z"/>
		<path class="st33" d="M534.2,276c0.2,0.8,1.1,2.4,1.5,3.1l-4.4,4.9c-2.6-2.8-8.8-9.6-9-9.8c-0.2-0.2,0.1-0.8,0.3-1
			c-0.3-0.2-0.8-0.6-0.8-1c0-0.4,0.2-0.7,0.2-0.8c-0.3-0.3-0.8-1.1,0-1.3c0.8-0.2,6.2,1.8,8.2,2.3l-0.5-2.6c0.8,0.3,2.5,0.9,3.1,1.3
			C533.7,271.7,533.9,275,534.2,276z"/>
		<path class="st34" d="M539.7,272.4c-4-0.9-8.3-4.6-8.6-7.7c-0.6-7.8,15.2-13.8,20.8-13.4c3.6,0.3,7.7,5.7,6.4,9.5
			C557.1,264.7,548.8,274.5,539.7,272.4z"/>
		<path class="st12" d="M544,264.2c-4.1,1.2-6.3-1-6.9-2.3l4.4-6.7l11.3-2.3C551.6,256.1,548.2,263,544,264.2z"/>
		<path class="st33" d="M539.6,264.2c5.1,0,9.9-5,11.6-8.2c0.2,0,1.8-0.5,2.6-2.3c0.7-1.7-0.2-2.8-0.8-3.6
			c0.8-2.8,0.4-11.1-6.1-12.6c-6.4-1.5-11.6,0.8-14,7.5C531,250.2,533.2,264.2,539.6,264.2z"/>
		<path class="st12" d="M562.6,281.5c-0.1-0.8-0.2-1.5-0.3-2.2L550,293.5l-17.2-9.3c3.2,7.3,11.9,22.6,21.5,26.8
			C557.5,302.9,560.7,290.6,562.6,281.5z"/>
		<g class="st2">
			<path class="st3" d="M550.6,239.6c0.9,8.8-0.6,20.6-11.4,24.4c9.5-2.6,14.1,3.9,5.4,8.6c2.6,5.2,4.6,11.4,3.3,16.6
				c-2.1,8.8-11.3,7.6-15.7,5.9l18.9,22.5c2.3-3.5,4.9-10.6,7.1-18.2c4.9-7.8,7.2-22.8,6.2-30c-0.2-1.6-1.1-2.9-2.3-3.7
				c-1.4-1.4-3.1-2.4-4.6-2.9c0.4-0.7,0.7-1.3,0.9-1.8c1.1-3.1-1.5-7.3-4.4-8.9c-0.1-0.8-0.6-1.4-1-1.9l-0.1-0.1
				C553.5,247.9,553.4,242.7,550.6,239.6z"/>
		</g>
		<path class="st23" d="M530.1,283.7c7.5,10.8,16.3,21.9,22.7,20.3c8.5-2.2,12.8-25.2,11.6-34.7c-0.6-4.6-6.5-6.2-9.3-3.3
			c-2.3,2.3-5.1,15-6.7,21.3l-13.1-9.3L530.1,283.7z"/>
		
			<linearGradient id="SVGID_3_" gradientUnits="userSpaceOnUse" x1="547.2662" y1="96.1203" x2="539.6163" y2="83.0093" gradientTransform="matrix(1 0 0 -1 0 336)">
			<stop  offset="0" style="stop-color:#2D130B"/>
			<stop  offset="1" style="stop-color:#2D130B;stop-opacity:0"/>
		</linearGradient>
		<path class="st35" d="M545.1,245.8c2.3,0.6,3.3,4.3,3.6,7.9c0.2-0.8,2.5-3.9,4.3-3.5c0,0,0,0,0,0c0,0,0-0.1-0.1-0.1
			c0.8-2.8,0.4-11.1-6.1-12.6c-6.4-1.5-11.6,0.8-14,7.5c-0.1,0.3-0.2,0.6-0.3,0.9C536.3,250.2,541,244.7,545.1,245.8z"/>
		<path class="st36" d="M537.6,254.4c-0.5,2.3-1,4.2-0.8,5.4c0.2,1.2,1.8-0.2,2.6-1"/>
		<path class="st37" d="M542.8,258.8c-0.1,1-1,2-2.1,2"/>
		
			<ellipse transform="matrix(0.9926 -0.1218 0.1218 0.9926 -27.0052 67.8444)" class="st12" cx="541.4" cy="254.8" rx="0.3" ry="0.7"/>
		<path class="st38" d="M539.8,251.5c-0.1-0.1,0-0.2,0.1-0.3c0.4-0.2,1.5-0.5,2.2,0.4c0.1,0.1,0.1,0.2,0,0.3
			C542.1,251.9,539.8,251.6,539.8,251.5z"/>
		
			<ellipse transform="matrix(0.1218 -0.9926 0.9926 0.1218 216.9306 754.7559)" class="st12" cx="535" cy="254.8" rx="0.7" ry="0.3"/>
		<path class="st38" d="M536.6,251c0-0.1,0-0.2-0.1-0.3c-0.4-0.2-1.4-0.5-2.2,0.4c-0.1,0.1-0.1,0.2,0,0.3
			C534.3,251.4,536.5,251,536.6,251z"/>
		<path class="st32" d="M534,297.1l9.8,11.8"/>
		<g class="st2">
			<path class="st3" d="M531.1,285.3c7.8,8.8,17.3,18.2,22.2,16.2c5.9-2.4,8.5-15.2,11.2-26.4c-0.5,10.9-4.7,27.1-11.8,29
				C546.7,305.6,538.3,295.6,531.1,285.3z"/>
		</g>
		<path class="st32" d="M554.1,290.9l-5.9-3.9"/>
		<path class="st23" d="M472,299.7c-0.5-0.5-1.5-0.3-2-0.2l0.4,1.4C471.5,300.1,471.9,299.9,472,299.7z"/>
		<path class="st18" d="M448,318.6c0.1-0.7,3.8-2,5.7-2.5l3.5,0.8c-1,0.8-3.5,2.6-4.9,3.2C450.4,320.8,447.9,319.5,448,318.6z"/>
		<path class="st31" d="M448.5,318.1c-0.3,0.2-0.5,0.4-0.5,0.5c-0.1,0.9,2.4,2.1,4.2,1.4c0.2-0.1,0.5-0.2,0.8-0.3
			C450.4,319.5,449.1,318.8,448.5,318.1z"/>
		<path class="st18" d="M466.7,315.9c-4,4.5-9.2,2.3-12.8,1.2c-0.6-0.2-1.9-0.7-2.1-1.2c-0.3-0.6,6.8-8.5,10-10.3
			c3.2-1.8,2.3-3.5,3.8-5.4c1.4-1.9,3.5-1.8,4.6-0.6c1.2,1.3,0.6,2.6-0.2,4.7C469.2,306.5,470.6,311.7,466.7,315.9z"/>
		<path class="st31" d="M468.7,300.2c-0.1-0.2-0.3-0.3-0.5-0.3c-0.2,0.1-0.3,0.3-0.3,0.5c0.1,0.2,0.3,0.3,0.5,0.3
			C468.6,300.7,468.8,300.5,468.7,300.2z"/>
		<path class="st23" d="M466.1,310.7c1.5-2.7,0.2-5.5-2.1-6c-4-0.8-15.2,12.2-13.5,12.9C453.5,318.8,464.6,313.4,466.1,310.7z"/>
		<path class="st31" d="M460.9,314.7c-1.3,0.1-2.7,0-3.7-0.4c-1.8-0.5-2.6-1.7-2.9-2.8c-2.7,3-4.6,5.8-3.8,6.1
			C452.3,318.4,457.1,316.7,460.9,314.7z"/>
		<path class="st7" d="M564.8,366.1v-43.5h4.1v43.5H564.8z"/>
		<path class="st7" d="M457.5,366.1v-43.5h4.1v43.5H457.5z"/>
		<g class="st2">
			<path class="st3" d="M363.7,367.8c0-0.8,0.6-1.4,1.4-1.4H423c0.8,0,1.4,0.6,1.4,1.4c0,0.8-0.6,1.4-1.4,1.4h-57.9
				C364.3,369.2,363.7,368.6,363.7,367.8z"/>
		</g>
		<path class="st39" d="M365.4,368.3c-1.1,1.1-2.3,1.1-2.8,0.9c-0.2,0-0.5-0.1-0.5-0.5c0-0.5,0.9-2.8,1.8-4.2
			c0.7-1.1,2.5-2.9,3.2-3.7c-2.6,0.8-8,2.3-8.8,2.3c-0.9,0-1.8-0.5-1.4-1.8c0.5-1.4,10.1-5.1,11.1-6c0.9-0.9-0.5-5.5-1.8-6.9
			c-1.4-1.4-2.8-0.5-4.2-0.5s-2.3-1.8-2.8-2.3c-0.5-0.5,0.5-0.9,1.4-1.4c0.9-0.5,0.5-0.9,0.9-2.8c0.4-1.5,2-2.8,2.8-3.2
			c-0.2-0.9-0.4-2.8,0-2.8c0.4,0,2.3,1.5,3.2,2.3c5.1,0,7.4,5.1,8.8,6c1.4,0.9,14.8,1.4,21.7,0c6.9-1.4,9.7-3.7,14.8-6.9
			c5.1-3.2,8.3-4.6,11.5-4.6c3.2,0,3.2,3.7,0.5,3.9c-2.8,0.2-4.6,0.8-7.4,3.5c-2.8,2.8-11.1,6.5-10.6,7.4
			c0.5,0.9,11.1,10.6,12.9,12.4c1.9,1.8,6.5,7.8,5.1,8.8c-1.4,0.9-3.7-2.3-5.5-4.6c-1.5-1.8-4.3-2.6-5.5-2.8c1.1,2.3,3,7.2,1.8,8.3
			c-1.4,1.4-3.2-3.2-4.6-6c-1.4-2.8-2.3-2.3-6-2.8c-3.7-0.5-6.9-1.8-8.8-2.8c-1.8-0.9-2.8,0-7.8,0.5c-4.1,0.4-8.8-0.2-10.6-0.5
			c-0.9,1.8-4.2,4.6-7.8,6C366.3,365.1,366.8,367,365.4,368.3z"/>
		<g class="st2">
			<path class="st3" d="M97.4,298.1h44v49.1h-44V298.1z"/>
		</g>
		<path class="st31" d="M140.6,284.1h-39.7l-7.7,55.8h39.7L140.6,284.1z"/>
		<path class="st18" d="M104.7,295.4H134l-0.9,5.7h-29.3L104.7,295.4z"/>
		<path class="st18" d="M98,284.1h45.4l-9.4,68h-2.8l9.1-65.2h-39.7l-9.1,65.2h-2.8L98,284.1z"/>
		<path class="st40" d="M122.6,306.8h-19.8l-0.4,2.7h19.8L122.6,306.8z"/>
		<path class="st18" d="M300.8,265h19.8v14.2h-19.8V265z"/>
		<g class="st2">
			<path class="st3" d="M160.4,364.7c0-0.9,0.7-1.6,1.6-1.6h154c0.9,0,1.6,0.7,1.6,1.6c0,0.9-0.7,1.6-1.6,1.6h-154
				C161.2,366.3,160.4,365.6,160.4,364.7z"/>
		</g>
		<path class="st7" d="M226.6,313.4h-66.9l0,4.1h66.9L226.6,313.4z"/>
		<path class="st22" d="M192.2,313.4l19.3,3.7v-3.7H192.2z"/>
		<path class="st7" d="M226.6,317.5h-4.1v44.7h4.1V317.5z"/>
		<path class="st7" d="M200.9,268.6h-4.1v44.7h4.1V268.6z"/>
		<path class="st7" d="M163.8,268.6h-4.1v44.7h4.1V268.6z"/>
		<path class="st7" d="M201.4,317.5h-4.1v44.7h4.1V317.5z"/>
		<path class="st7" d="M189,317.5h-4.1v44.7h4.1V317.5z"/>
		<g class="st2">
			<path class="st3" d="M189,317.5h-4.1v44.7h4.1V317.5z"/>
		</g>
		<path class="st7" d="M163.8,317.5h-4.1v44.7h4.1V317.5z"/>
		<rect x="159.7" y="268.6" class="st7" width="41.2" height="15"/>
		<path class="st22" d="M163.8,292.5v-23.9h-2.6c-0.5,0.4-1,0.9-1.5,1.5V289C160.9,290.3,162.3,291.5,163.8,292.5z"/>
		<path class="st41" d="M170.3,251c-2.3,4.3-13.2,5.3-13.9,16.4c-1.3,19.5,30.7,24.3,35.7,6.3c3-10.9-6.7-19.3-6.7-22.7
			c0-3.4,4.4-9.4,1.3-12.3c-4.2-3.9-11.4-0.6-13.9,2.4C170.3,244,172.6,246.7,170.3,251z"/>
		<g class="st2">
			<path class="st3" d="M170.3,251c-0.8,1.5-2.6,2.5-4.6,3.8c-3.9,2.4-8.8,5.3-9.3,12.7c-0.6,9.3,6.3,15.3,14.3,17l4.1-12.2
				c3.9-4.4,10.3-11.8,13.2-15.8c-0.2-0.3-0.3-0.5-0.5-0.8c-0.3-0.5-0.6-0.9-0.8-1.3c-2,0.2-4.5-0.4-7.5-3c-3-2.6-4.1-8.3-4.3-12.2
				c-0.9,0.6-1.6,1.2-2.2,1.9c-1.3,1.5-1.3,2.9-1.3,4.6C171.4,247.2,171.4,248.9,170.3,251z"/>
		</g>
		<g class="st2">
			<path class="st3" d="M170.3,251c-0.8,1.5-2.6,2.5-4.6,3.8c-3.9,2.4-8.8,5.3-9.3,12.7c-0.6,9.3,6.3,15.3,14.3,17l4.1-12.2
				c3.9-4.4,10.3-11.8,13.2-15.8c-0.2-0.3-0.3-0.5-0.5-0.8c-0.3-0.5-0.6-0.9-0.8-1.3c-2,0.2-4.5-0.4-7.5-3c-3-2.6-4.1-8.3-4.3-12.2
				c-0.9,0.6-1.6,1.2-2.2,1.9c-1.3,1.5-1.3,2.9-1.3,4.6C171.4,247.2,171.4,248.9,170.3,251z"/>
		</g>
		<path class="st42" d="M214.7,254.5c-0.9,1.5-1.4,4.9-1.5,6.3l6.1,0.8l-0.1-4c0.6-0.8,1.6-2.7,0.9-3.5c-0.7-0.8-1.4-1.1-1.6-1.2
			c1.1-1.4,3.2-4.1,2.8-4.2C220.8,248.5,215.8,252.6,214.7,254.5z"/>
		<path class="st34" d="M191.6,261.9c-4.2-2.2-8.8-0.6-9.1,4.6c-0.6,8.7,25.8,30.9,33.2,25.5c5.8-4.2,4.4-22.1,3.5-31.2l-5.8-1.1
			l-3.5,19.6C200.8,270.2,194.9,263.7,191.6,261.9z"/>
		<path class="st42" d="M217.9,357.6c-1.6-1.5-0.3-5.2-0.3-6.9l-3.6,0.8l-3.6,0.8c-0.5,4.4-3.5,9.4-4.4,11.4h2.8
			c0.1-0.8,0.5-2.4,1.5-2.5c0.9-0.1,3.4,1.6,4.5,2.5h14.9C228.9,361.3,220,359.5,217.9,357.6z"/>
		<path class="st21" d="M219.1,358.4c-0.7,0.9-1.5,1.5-2.5,1.7c-1.9,0.4-5.1-1.5-7.4-3.1c-0.8,2-1.7,3.9-2.5,5.3
			c-0.3,0.6-0.5,1-0.7,1.4h2.8l0,0c0-0.4,0.2-1,0.4-1.5c0.2-0.5,0.6-0.9,1-1c0.9-0.1,3.4,1.6,4.5,2.5h14.9c-0.5-1.3-3.3-2.5-6.2-3.5
			c-0.2-0.1-0.4-0.1-0.6-0.2C221.5,359.5,220.1,358.9,219.1,358.4z"/>
		<g class="st2">
			<path class="st3" d="M219.1,358.4c-0.7,0.9-1.5,1.5-2.5,1.7c-1.9,0.4-5.1-1.5-7.4-3.1c-0.8,2-1.7,3.9-2.5,5.3
				c-0.3,0.6-0.5,1-0.7,1.4h2.8l0,0c0-0.4,0.2-1,0.4-1.5c0.2-0.5,0.6-0.9,1-1c0.9-0.1,3.4,1.6,4.5,2.5h14.9
				c-0.5-1.3-3.3-2.5-6.2-3.5c-0.2-0.1-0.4-0.1-0.6-0.2C221.5,359.5,220.1,358.9,219.1,358.4z"/>
		</g>
		<path class="st23" d="M230.5,352.6c3.8-14.3,8.6-44.4,2-52.3c-6.6-7.9-34.9-13.3-50.2-10.9c6.5,16.9,27.7,20.4,37.5,20l-9.6,43.1
			H230.5z"/>
		<g class="st2">
			<path class="st3" d="M230.5,352.6c3.8-14.3,8.6-44.4,2-52.3c-6.6-7.9-34.9-13.3-50.2-10.9c6.5,16.9,27.7,20.4,37.5,20l-9.6,43.1
				H230.5z"/>
		</g>
		<rect x="228.8" y="300.6" class="st29" width="3.6" height="60.1"/>
		<g class="st2">
			<path class="st3" d="M226.6,296.1l-30.9,3.6l39.9,10.4c-0.4-4.3-1.3-7.8-3-9.8C231.3,298.8,229.2,297.4,226.6,296.1z"/>
		</g>
		<path class="st22" d="M228.8,300.6h3.6v3.6h-3.6V300.6z"/>
		<rect x="217.3" y="360.8" class="st29" width="26.5" height="3"/>
		<path class="st42" d="M236.7,357.6c-1.6-1.5-1.9-5.2-1.9-6.9l-3.6,0.8l-3.6,0.8c0,4.3-1.9,9.4-2.8,11.4h2.8
			c0.1-0.8,0.5-2.4,1.5-2.5s3.4,1.6,4.5,2.5h14.9C247.7,361.3,238.8,359.5,236.7,357.6z"/>
		<path class="st21" d="M237.9,358.4c-0.7,0.9-1.5,1.5-2.5,1.7c-2.1,0.4-6-2-8.2-3.7c-0.6,3.1-1.7,5.9-2.3,7.3h2.8
			c0.1-0.8,0.5-2.4,1.5-2.5s3.4,1.6,4.5,2.5h14.9c-0.5-1.4-3.7-2.6-6.7-3.8C240.4,359.5,238.9,358.9,237.9,358.4z"/>
		<g class="st2">
			<path class="st3" d="M237.9,358.4c-0.7,0.9-1.5,1.5-2.5,1.7c-2.1,0.4-6-2-8.2-3.7c-0.6,3.1-1.7,5.9-2.3,7.3h2.8
				c0.1-0.8,0.5-2.4,1.5-2.5s3.4,1.6,4.5,2.5h14.9c-0.5-1.4-3.7-2.6-6.7-3.8C240.4,359.5,238.9,358.9,237.9,358.4z"/>
		</g>
		<path class="st23" d="M182.9,311.3c-6.1-3.4-6.7-12.8-6.7-17.7c51.2-3.2,46.5,4,59.8,61.3h-19.1l-9.6-41.5
			C200.3,313.4,188.9,314.7,182.9,311.3z"/>
		<g class="st2">
			<path class="st3" d="M176.4,298.5c0.5,4.8,2.1,10.4,6.4,12.8c4.8,2.7,13,2.4,19.7,2.2c1.7-0.1,3.3-0.1,4.7-0.1l9.6,41.5h10.9
				l-17.1-42.1l-31.3-16.7L176.4,298.5z"/>
		</g>
		<path class="st22" d="M178.5,306.5c-1.1-2.2-1.7-4.8-2-7.3l16.4-4.8L178.5,306.5z"/>
		<path class="st7" d="M193.7,263.2c-4.4-5.2-25.8-3.5-27.6,3.5c-3.1,12,6.2,24.9,12.2,33.3c11.5-10.1,10.4-10.8,15.5-10.8
			C196.5,268.8,197.1,267.3,193.7,263.2z"/>
		<path class="st22" d="M177.9,288.6c-1.7-1.7-1.9-12.2-1.8-17.3l-5.1,23.3l20.7-4.2C187.8,290.5,179.5,290.3,177.9,288.6z"/>
		<path class="st42" d="M199.5,286.9c-2.4-0.1-5.8,1.7-7.4,2.8l2.2,5.1l5.2-4.5c2.6,0.1,7.8,0.3,7.8,0
			C207.3,290,202.5,287.1,199.5,286.9z"/>
		<path class="st34" d="M176.8,268.5c-0.9-4.6-5.1-7.1-9.3-4.1c-7.1,5-6.2,32.8,1.7,37.3c4.3,2.5,9,2.3,27.2-7.4l-2.8-5.5l-17.6,1.8
			C176.8,279.1,177.5,272.1,176.8,268.5z"/>
		<path class="st42" d="M186.2,262.3l-3.3-10.2l-4.5-0.6l-0.7,11.2C181.1,263.7,183.1,263.5,186.2,262.3z"/>
		<path class="st22" d="M178.3,251.5l0,0.3l7.3,8.7l-2.7-8.4L178.3,251.5z"/>
		<path class="st42" d="M186.2,253.4c1.2-2,0.8-5.9-0.4-9.3c-1.7-5-6.2-5.4-9.5-3.7c1.2,3.3,0.9,6.4,0.4,8.2
			c-1.1-0.8-3.5-1.9-3.7-0.5C172.5,251.9,183.9,256.9,186.2,253.4z"/>
		<ellipse transform="matrix(0.9917 -0.1288 0.1288 0.9917 -30.066 25.3469)" class="st12" cx="181" cy="245.2" rx="0.4" ry="0.7"/>
		
			<ellipse transform="matrix(0.9917 -0.1288 0.1288 0.9917 -30.0309 25.889)" class="st12" cx="185.2" cy="245.2" rx="0.4" ry="0.7"/>
		<path class="st43" d="M180.2,249.3c0.2,0.5,1.1,1.4,2.7,1"/>
		<path class="st44" d="M183.2,244.5c0.8,1.1,2,3,2,3.5c0,0.5-1,0.8-1.6,0.9"/>
		<path class="st45" d="M178.4,242.4c-0.1,0-0.1-0.2-0.1-0.3c0.2-0.4,0.8-1.3,2-1.1c0.1,0,0.2,0.1,0.2,0.2
			C180.4,241.3,178.4,242.4,178.4,242.4z"/>
		<path class="st45" d="M185.5,242.4c0.1,0,0.2-0.2,0.1-0.3c-0.2-0.4-0.8-1.3-2-1.1c-0.1,0-0.2,0.1-0.2,0.2
			C183.5,241.3,185.4,242.4,185.5,242.4z"/>
		<path class="st29" d="M194.5,289.8h72.2v10.8h-72.2V289.8z"/>
		<path class="st42" d="M188.1,260.7c-4-0.8-9.1-0.6-13.5,0.4C177.8,263.4,184.2,266,188.1,260.7z"/>
		<g class="st2">
			<path class="st3" d="M176.9,248c0,0.2-0.1,0.4-0.2,0.6c-1.1-0.8-3.5-1.9-3.7-0.5c-0.3,1.8,2.3,3.9,5.2,5.2l-0.4,7.2
				c-1.1,0.1-2.1,0.3-3.1,0.6c1.8,1.3,4.6,2.7,7.4,2.7c1.1-1.4,2.3-2.7,3.3-3.9l-1.7-5.3c0.5,0,1-0.1,1.4-0.3
				c-1.7-0.2-3.6-1-5.9-2.9C178.2,250.5,177.5,249.3,176.9,248z"/>
		</g>
		<path class="st46" d="M293.7,351.2h-8.2c0.5,2.4,0.8,3.3,1.4,6.5c-1.8,3.5-8.8,2.1-10.3,5.6h18.8L293.7,351.2z"/>
		<path class="st7" d="M294.5,356.9c-2-0.8-4,0.5-5.3,1.3c-0.8,0.5-1.3,0.8-1.5,0.6c-0.3-0.3-0.6-0.7-0.9-1.1
			c-0.9,1.6-3,2.1-5.1,2.6c-2.2,0.5-4.4,1-5.1,2.9h18.8L294.5,356.9z"/>
		<path class="st46" d="M277.3,351.2h-8.2c0.5,2.4,0.8,3.3,1.4,6.5c-1.8,3.5-8.8,2.1-10.3,5.6H279L277.3,351.2z"/>
		<path class="st7" d="M278.1,356.9c-2-0.8-4,0.5-5.3,1.3c-0.7,0.5-1.3,0.8-1.5,0.6c-0.3-0.3-0.6-0.7-0.8-1.1
			c-0.9,1.6-3,2.1-5.1,2.6c-2.2,0.5-4.4,1-5.1,2.9H279L278.1,356.9z"/>
		<path class="st47" d="M233.7,219.7v-1.1l27.3-4.2l13.5,17.1l-27.3,5.3L233.7,219.7z"/>
		<path class="st34" d="M233.7,218.6l27.3-5.3l13.5,17.1l-27.3,5.3L233.7,218.6z"/>
		<path class="st48" d="M235.9,219.2l24.4-4.7l12,15.3l-24.4,4.7L235.9,219.2z"/>
		<path class="st49" d="M250.1,216.5l2.9,3.7l-12.2,2.4l-2.9-3.7L250.1,216.5z"/>
		<path class="st10" d="M242.4,224.7l12.2-2.4l6,7.6l-12.2,2.4L242.4,224.7z"/>
		<path class="st41" d="M270.7,189.4c-5.5-0.7-9.1,2.9-10.2,4.8c-6,2.7-2.1,19.8-1.5,21.6c12.5,1.3,19.5-4.2,27.7-13.5
			C283.6,198.3,276.2,190.1,270.7,189.4z"/>
		<path class="st46" d="M261.2,195.3c1.3,5.3,7.5,3.7,9.2,7.3c0.3-1,1.8-3.2,2.7-2.4c1.2,0.9,0.9,5.3-1.1,8.6
			c-1.6,2.7-4.9,4.4-6.1,4.4c-0.6,0-2.1-2.4-3.9-5.8l0,0c-0.3-0.2-0.6-0.3-0.9-0.4c-0.8-0.3-1.4-0.6-0.5-1.7
			c0.7-0.7,0.4-2.1,0.1-3.7C260.3,199.5,259.9,197.2,261.2,195.3z"/>
		<g class="st2">
			<path class="st3" d="M270.4,210.7c-1.6,1.5-3.7,2.5-4.6,2.5c1.2-1.2,1.8-1.8,3.6-3.9C269.8,209.1,270.1,209.7,270.4,210.7z"/>
		</g>
		<path class="st46" d="M272,216.9l-2.9-9.1l3.6-2.9l7.8,9.9L272,216.9z"/>
		
			<ellipse transform="matrix(0.9713 -0.2377 0.2377 0.9713 -40.8563 68.3782)" class="st12" cx="263.1" cy="203.6" rx="0.3" ry="0.7"/>
		<path class="st50" d="M265.4,206.1c0.2,0.5,0.2,1.8-1.3,2.6"/>
		<path class="st45" d="M261,201.1c-0.1-0.1-0.1-0.2,0-0.3c0.3-0.4,1.2-1,2.2-0.5c0.1,0,0.1,0.2,0.1,0.3
			C263.3,200.6,261,201.2,261,201.1z"/>
		<path class="st23" d="M284.5,214.6c-1.6-0.5-8.4-3.1-12.9,0.9C274,210.4,279.7,209.2,284.5,214.6z"/>
		<path class="st7" d="M270.7,215.5c-3.5,2.7-6,9-9,15l7.4,4.4l0.9,21.7h23.2c0-27.3-0.3-34.2-6.3-40.6
			C282.1,211,275.2,212.1,270.7,215.5z"/>
		<path class="st18" d="M285.3,354.2l11.9-1.3c-4.7-33.6-5.6-64.3-4.3-96.2l-18.7,2C272.8,294.2,277.8,320,285.3,354.2z"/>
		<path class="st20" d="M278,313.9l-18.1,0.1l11.9-40L278,313.9z"/>
		<path class="st20" d="M284,348l-1.9-78.2l-5.8,35.6C278,319.3,280.7,332.9,284,348z"/>
		<path class="st18" d="M268.7,353.7h12c-1-34,1.4-64.6,6.2-96.1h-18.8C262.7,292.7,264.9,318.9,268.7,353.7z"/>
		<path class="st22" d="M280.6,259.4c-2.2,1.2-3.5,5.1-3.9,6.9v-8.7H292C289.1,257.7,282.8,258.2,280.6,259.4z"/>
		<g class="st2">
			<path class="st3" d="M266.8,335.1c10.6-20.7,11.5-56.4,10.3-73.4l-11.4,15.9C264.1,297.5,264.9,315.3,266.8,335.1z"/>
		</g>
		<path class="st23" d="M278.7,257.2l-9.8-36.8l-0.9,36.8l-8.1,56.7C273.8,312.4,276.1,305.5,278.7,257.2z"/>
		<path class="st22" d="M268.1,250l0.3-13.1l6.7-8.2C275.2,232.8,273.7,241.9,268.1,250z"/>
		<path class="st46" d="M241.7,229.8c0.2-1.7,0.7-3.7,1.2-3.3c0.5,0.4,0,3.8,0.7,7.1l-3.4,3.8c-0.9-1.1-2.5-4.4-3-6.1
			c-0.5-1.8-0.7-5.5-0.2-7.3L241.7,229.8z"/>
		<path class="st7" d="M269.8,216.3c-4.5,4.9-6.4,10-14.2,26l-11.9-9.2l-3.7,4.4c7.8,12.6,14.1,20.3,19.8,18
			c7.2-2.8,15.6-20,16.8-29.2C278,217.2,273.6,212.2,269.8,216.3z"/>
		<path class="st51" d="M284.4,278c0-10,0.7-20.4,0.8-21.9l2.2,0.2c0,0,0-0.1,0-0.1h2.3c0,0.8,0.2,3.1,0.5,6.3
			c0,0.5,0.1,0.9,0.1,1.4c0.4,3.9,0.8,8.8,1.1,13.5c0.3,4.8,0.5,9.5,0.2,13.1c-0.1,1.8-0.3,3.4-0.7,4.6c-0.2,0.6-0.4,1.2-0.8,1.6
			c-0.3,0.5-0.8,0.9-1.5,1c-0.7,0.2-1.4-0.1-1.8-0.5c-0.4-0.4-0.7-0.9-1-1.5c-0.5-1.1-0.8-2.7-1-4.5
			C284.6,287.9,284.4,283,284.4,278z M287.4,256.6c-0.2,2.3-0.7,12-0.7,21.3c0,5,0.1,9.7,0.6,13.2c0.2,1.7,0.5,3.1,0.8,3.9
			c0.1,0.2,0.2,0.4,0.3,0.5c0,0,0,0,0,0c0.1-0.2,0.3-0.5,0.4-1c0.3-1,0.5-2.4,0.6-4.1c0.2-3.5,0.1-8.1-0.2-12.8
			c-0.3-4.7-0.8-9.6-1.1-13.5c0-0.5-0.1-1-0.2-1.5C287.7,260,287.5,257.8,287.4,256.6z M288.3,295.7
			C288.3,295.7,288.3,295.7,288.3,295.7C288.3,295.7,288.3,295.7,288.3,295.7z"/>
		<path class="st51" d="M284.4,278c0-10,0.7-20.4,0.8-21.9l2.2,0.2c0,0,0-0.1,0-0.1h2.3c0,0.8,0.2,3.1,0.5,6.3
			c0,0.5,0.1,0.9,0.1,1.4c0.4,3.9,0.8,8.8,1.1,13.5c0.3,4.8,0.5,9.5,0.2,13.1c-0.1,1.8-0.3,3.4-0.7,4.6c-0.2,0.6-0.4,1.2-0.8,1.6
			c-0.3,0.5-0.8,0.9-1.5,1c-0.7,0.2-1.4-0.1-1.8-0.5c-0.4-0.4-0.7-0.9-1-1.5c-0.5-1.1-0.8-2.7-1-4.5
			C284.6,287.9,284.4,283,284.4,278z M287.4,256.6c-0.2,2.3-0.7,12-0.7,21.3c0,5,0.1,9.7,0.6,13.2c0.2,1.7,0.5,3.1,0.8,3.9
			c0.1,0.2,0.2,0.4,0.3,0.5c0,0,0,0,0,0c0.1-0.2,0.3-0.5,0.4-1c0.3-1,0.5-2.4,0.6-4.1c0.2-3.5,0.1-8.1-0.2-12.8
			c-0.3-4.7-0.8-9.6-1.1-13.5c0-0.5-0.1-1-0.2-1.5C287.7,260,287.5,257.8,287.4,256.6z M288.3,295.7
			C288.3,295.7,288.3,295.7,288.3,295.7C288.3,295.7,288.3,295.7,288.3,295.7z"/>
		<path class="st52" d="M238.8,229.4l-1.8-4.5"/>
		<path class="st51" d="M294.5,299.8c-0.3,0.5-0.8,0.9-1.5,1.1c-0.7,0.2-1.3-0.1-1.8-0.5c-0.4-0.4-0.8-0.9-1-1.4
			c-0.5-1.1-0.9-2.6-1.2-4.3c-0.6-3.5-1-8.4-1.2-13.4c-0.3-8.2-0.3-17.2-0.2-22c0-1.1,0-1.9,0-2.5h2.3c0,0.1,0,0.1,0,0.2l2.2-0.4
			c0.5,2.8,2.2,13.3,3.1,23.3c0.5,5,0.8,9.8,0.6,13.6c-0.1,1.9-0.2,3.5-0.6,4.7C295.1,298.8,294.8,299.4,294.5,299.8z M289.9,257.1
			c0,0.6,0,1.4,0,2.3c0,4.8-0.1,13.6,0.2,21.8c0.2,5,0.6,9.7,1.2,13.1c0.3,1.7,0.6,3,1,3.8c0.1,0.3,0.2,0.4,0.3,0.5c0,0,0,0,0-0.1
			c0.1-0.2,0.3-0.5,0.4-1c0.3-1,0.4-2.4,0.5-4.2c0.1-3.6-0.1-8.3-0.6-13.3C292,270.4,290.4,260.1,289.9,257.1z M292.5,298.7
			C292.5,298.7,292.5,298.7,292.5,298.7C292.5,298.7,292.5,298.7,292.5,298.7z"/>
		<path class="st23" d="M274.3,255.5l19-0.2l-0.3,3l-18.6-0.3L274.3,255.5z"/>
		<path class="st53" d="M257.1,244.7l-1.5-2.1v6.9"/>
		<rect x="226.9" y="273.9" class="st9" width="9" height="15.6"/>
		<rect x="226.9" y="270.8" class="st9" width="9" height="3"/>
		<g class="st2">
			<rect x="226.9" y="273.9" class="st54" width="9" height="0.6"/>
		</g>
		<rect x="238.3" y="273.9" class="st55" width="9" height="15.6"/>
		<rect x="238.3" y="270.8" class="st55" width="9" height="3"/>
		<g class="st2">
			<rect x="238.3" y="273.9" class="st56" width="9" height="0.6"/>
		</g>
		<path class="st9" d="M230.8,267.2h1.2l0.3,3.6h-1.8L230.8,267.2z"/>
		<path class="st55" d="M242.2,267.2h1.2l0.3,3.6h-1.8L242.2,267.2z"/>
		<g class="st2">
			<path class="st3" d="M189.5,297.7c-5.8,1.2-12.7,2.1-16.9,1.3c-4.4-0.9-7.7-7.6-9.8-14c0.6,7.5,2.7,14.5,6.3,16.6
				C172.8,303.8,176.8,303.9,189.5,297.7z"/>
		</g>
		<circle class="st57" cx="308.5" cy="272.6" r="3.6"/>
		<circle class="st58" cx="312.8" cy="272.6" r="3.6"/>
		<path class="st59" d="M310.7,275.4c0.9-0.7,1.4-1.7,1.4-2.9c0-1.2-0.6-2.2-1.4-2.9c-0.9,0.7-1.4,1.7-1.4,2.9
			C309.2,273.7,309.8,274.8,310.7,275.4z"/>
		<path class="st60" d="M118.8,97.8H78.7L97.6,60h21.2V97.8z"/>
		<path class="st60" d="M200.2,97.8h-40.8V60h40.8V97.8z"/>
		<path class="st60" d="M281.8,97.8H241V60h40.8V97.8z"/>
		<path class="st60" d="M363.2,97.8h-40.8V60h40.8V97.8z"/>
		<path class="st60" d="M444.8,97.8H404V60h40.8V97.8z"/>
		<path class="st60" d="M526.2,97.8h-40.8V60h40.8V97.8z"/>
		<path class="st61" d="M548.8,60H97.6l-4,8h459.2L548.8,60z"/>
		<path class="st6" d="M294,0h60v60h-60V0z"/>
		<path class="st17" d="M322.3,25H319V13.3h-3.3V25h-3.3V13.3H309V25c0,3.5,2.8,6.4,6.2,6.6v15.1h4.2V31.6c3.5-0.2,6.2-3.1,6.2-6.6
			V13.3h-3.3V25z M330.7,20v13.3h4.2v13.3h4.2V13.3C334.4,13.3,330.7,17.1,330.7,20z"/>
		<path class="st62" d="M458.2,199.5c0,0.9-0.4,1.8-0.6,2.2l12.1,12.2l8.3-3.9l5,10.5c-4,2.4-14.2,6.4-18.2,3.3
			c-4-3.1-9.4-14.2-11.6-20.5c-4.3-4.4-3.9-14.9-1.1-14.4c1.1,0.2,3.1,5.5,4.4,8.3c0.2-1.5,0.7-4.3,1.1-3.9
			C458.2,194,458.2,198.4,458.2,199.5z"/>
		<path class="st14" d="M482.7,189.5c-1,6.4,2.9,11.3,4.9,12.9c-4.1,7.2-9.4,26.2-1.6,30.7c9.8,5.5,31.7,4,32.9-10.8
			c1.2-14.8-11-13.5-12.2-17.2c-1.2-3.7,4.3-12.3-1.8-19.1C498.8,179.2,483.9,181.5,482.7,189.5z"/>
		<path class="st63" d="M480.1,223.2c2.7-1.1,3.8-1.4,6.4-2.8l4.1,15.5h26.1c0-10.5-1.3-23.8-3.8-26.6c-3.6-4.2-12-5.3-19.9-4.6
			c-6.2,0.6-10.9,3-16,5.7c-0.7,0.4-1.5,0.8-2.2,1.2l0.2,0.4L480.1,223.2z"/>
		<path class="st12" d="M514,236v-7.5l-3,7.5H514z"/>
		<path class="st62" d="M514.5,228l-11-4.5L501,236h11.5L514.5,228z"/>
		<path class="st15" d="M465.9,220.1c-0.2-0.6,0.3-1.3,1-1.3h24.6c0.9,0,1.7,0.6,1.9,1.5l4.3,16.4h-27.4L465.9,220.1z"/>
		<path class="st15" d="M478.8,234.8h27.4v1.9h-27.4V234.8z"/>
		<path class="st62" d="M493.5,209l-2-8l5.5-3.5l5.5,8C500.4,209.2,497.5,210.4,493.5,209z"/>
		<path class="st12" d="M498.8,200.1l0.1,0.1l-5.5,8.4l-1.4-5.5L498.8,200.1z"/>
		<path class="st62" d="M490,188.5c0.2,1.7,3.3,6.1,8.5,8.5c2.3-3,4.5-1.5,2.3,2.1c-1.8,4-6.4,8.3-12.3,7.4c-2.3-0.4-3-6.5-2.6-12.1
			L490,188.5z"/>
		<path class="st64" d="M505.5,216l-2,8.5"/>
		<path class="st62" d="M477,226h6l1,6h-6L477,226z"/>
	</g>
</g>
</svg>
